<svg id="Capa_1" enable-background="new 0 0 512 512" height="512" viewBox="0 0 512 512" width="512" xmlns="http://www.w3.org/2000/svg"><g><path d="m256 130.568c-69.077 0-125.276 56.114-125.276 125.088s56.199 125.089 125.276 125.089c69.078 0 125.277-56.114 125.277-125.089 0-68.973-56.199-125.088-125.277-125.088zm-48.598 155.125c0 8.284-6.716 14.999-14.999 14.999-8.284 0-14.999-6.716-14.999-14.999v-60.073c0-8.284 6.716-14.999 14.999-14.999 8.284 0 14.999 6.716 14.999 14.999zm63.597 43.88c0 8.284-6.716 14.999-14.999 14.999s-15-6.715-15-14.999v-147.833c0-8.284 6.716-14.999 14.999-14.999s14.999 6.716 14.999 14.999v147.833zm63.598-43.88c0 8.284-6.716 14.999-14.999 14.999-8.284 0-14.999-6.716-14.999-14.999v-60.073c0-8.284 6.716-14.999 14.999-14.999 8.284 0 14.999 6.716 14.999 14.999z"/><path d="m498.885 212.68-37.27-4.158c-5.263-22.66-14.195-43.912-26.121-63.115l23.916-29.151c4.814-5.868 4.39-14.43-.98-19.794l-41.723-41.667c-5.311-5.304-13.757-5.774-19.624-1.093l-29.612 23.628c-19.184-11.939-40.42-20.893-63.067-26.2l-3.763-37.839c-.75-7.544-7.097-13.291-14.678-13.291h-59.027c-7.512 0-13.824 5.646-14.659 13.111l-4.241 37.913c-22.754 5.281-44.09 14.245-63.359 26.216l-28.982-23.714c-5.862-4.797-14.405-4.374-19.765.979l-41.724 41.667c-5.321 5.314-5.793 13.781-1.094 19.653l23.515 29.39c-11.907 19.127-20.838 40.293-26.132 62.86l-37.199 3.689c-7.547.748-13.296 7.096-13.296 14.678v58.905c0 7.514 5.648 13.827 13.115 14.66l37.27 4.158c5.264 22.66 14.195 43.912 26.122 63.115l-23.917 29.151c-4.814 5.868-4.39 14.43.981 19.794l41.723 41.667c5.311 5.304 13.757 5.774 19.624 1.093l29.611-23.628c19.203 11.951 40.464 20.912 63.137 26.217l3.693 37.135c.75 7.544 7.097 13.291 14.678 13.291h59.027c7.512 0 13.824-5.645 14.659-13.111l4.162-37.207c22.596-5.235 43.795-14.102 62.962-25.938l29.458 24.104c5.862 4.797 14.405 4.374 19.765-.979l41.724-41.668c5.321-5.314 5.793-13.781 1.094-19.653l-23.756-29.692c12.028-19.228 21.043-40.526 26.373-63.245l37.199-3.689c7.546-.748 13.295-7.096 13.295-14.679v-58.903c.001-7.514-5.647-13.827-13.114-14.66zm-242.885 198.064c-85.618 0-155.275-69.572-155.275-155.087s69.656-155.087 155.275-155.087 155.276 69.572 155.276 155.087c-.001 85.515-69.657 155.087-155.276 155.087z"/></g></svg>