<svg id="Layer_1" enable-background="new 0 0 500 500" viewBox="0 0 500 500" xmlns="http://www.w3.org/2000/svg"><path clip-rule="evenodd" d="m417.688 120.33h-47.282c-.498 0-.904.406-.904.904v40.028c0 .685-.726 1.121-1.331.798-3.831-2.048-7.737-4-11.714-5.851-.326-.152-.523-.46-.523-.82v-41.842c0-3.746 3.037-6.784 6.784-6.784h54.97c.402 0 .742-.251.862-.635 5.471-17.489 27.836-23.282 41.06-10.058 15.535 15.535 4.467 42.192-17.477 42.192-10.947 0-20.4-7.163-23.583-17.299-.12-.383-.46-.633-.862-.633zm-167.217 103.421c14.237 0 25.778 11.541 25.778 25.778s-11.541 25.779-25.778 25.779-25.779-11.541-25.779-25.779c0-14.237 11.541-25.778 25.779-25.778zm13.856-60.059c-.552-.088-1.048.334-1.048.894v29.168c0 .422.28.778.689.878 20.372 4.992 36.405 21.028 41.397 41.4.101.41.456.689.878.689h29.17c.559 0 .982-.495.894-1.048-5.913-36.916-35.064-66.068-71.98-71.981zm41.919 98.646c-.422 0-.778.28-.878.689-6.052 24.698-28.334 43.022-54.897 43.022-31.215 0-56.52-25.305-56.52-56.52 0-26.563 18.324-48.846 43.022-54.897.41-.1.689-.456.689-.878v-29.169c0-.56-.495-.982-1.047-.893-41.429 6.636-73.084 42.538-73.084 85.837 0 48.016 38.924 86.94 86.94 86.94 43.299 0 79.201-31.654 85.837-73.084.088-.553-.334-1.047-.893-1.047zm-56.246-115.711c-42.204 0-81.516 10.604-114.592 28.902-32.713 18.097-59.313 43.717-76.541 74.023-.162.285-.162.609 0 .894 17.228 30.306 43.828 55.926 76.541 74.023 69.694 38.556 159.492 38.556 229.185 0 32.712-18.097 59.313-43.717 76.541-74.023.162-.285.162-.609 0-.894-17.228-30.307-43.829-55.926-76.541-74.023-33.077-18.298-72.389-28.902-114.593-28.902zm-192.134-57.797c10.947 0 20.4 7.163 23.584 17.299.12.383.461.633.863.633h54.969c3.746 0 6.784 3.037 6.784 6.784v41.843c0 .36-.196.668-.523.82-3.977 1.851-7.883 3.804-11.714 5.851-.604.323-1.331-.112-1.331-.798v-40.028c0-.498-.406-.904-.904-.904h-47.282c-.402 0-.742.251-.862.635-5.471 17.491-27.837 23.281-41.06 10.058-15.535-15.535-4.468-42.193 17.476-42.193zm59.639-62.686c-21.943 0-33.011 26.657-17.476 42.192 13.221 13.221 35.586 7.435 41.06-10.058.12-.384.46-.635.862-.635h69.62c.498 0 .904.406.904.904v76.171c0 .553.484.973 1.031.895 3.874-.547 7.781-1.009 11.718-1.383.466-.044.819-.432.819-.9v-82.47c0-3.746-3.037-6.784-6.784-6.784h-77.307c-.401 0-.742-.25-.863-.633-3.183-10.136-12.637-17.299-23.584-17.299zm247.513 7.24c-2.779 2.779-4.9 6.218-6.107 10.059-.12.383-.461.633-.863.633h-77.307c-3.746 0-6.784 3.037-6.784 6.784v82.471c0 .468.353.856.819.9 3.937.374 7.844.836 11.718 1.384.547.077 1.031-.342 1.031-.895v-76.172c0-.498.406-.904.904-.904h69.619c.401 0 .742.25.863.633 1.207 3.842 3.328 7.28 6.107 10.059 15.536 15.535 42.192 4.467 42.192-17.477.001-21.941-26.655-33.011-42.192-17.475zm-230.036 433.232c-15.536 15.536-42.192 4.466-42.192-17.477s26.657-33.012 42.192-17.476c2.779 2.779 4.9 6.217 6.107 10.059.12.383.461.633.863.633h69.619c.498 0 .904-.406.904-.904v-76.171c0-.553.484-.973 1.031-.895 3.873.548 7.781 1.009 11.718 1.383.466.044.819.432.819.9v82.471c0 3.746-3.037 6.784-6.784 6.784h-77.307c-.401 0-.742.25-.863.633-1.208 3.842-3.328 7.281-6.107 10.06zm307.152-55.446c-10.946 0-20.4-7.163-23.584-17.299-.12-.383-.461-.634-.862-.634h-54.969c-3.746 0-6.784-3.037-6.784-6.784v-41.842c0-.36.196-.668.523-.82 3.977-1.851 7.883-3.803 11.714-5.851.604-.323 1.331.112 1.331.798v40.028c0 .498.406.904.904.904h47.282c.402 0 .742-.251.862-.635 5.471-17.49 27.836-23.282 41.06-10.058 15.535 15.536 4.465 42.193-17.477 42.193zm-59.639 62.686c21.943 0 33.012-26.657 17.476-42.192-13.224-13.224-35.589-7.431-41.06 10.058-.12.384-.46.635-.862.635h-69.62c-.498 0-.904-.406-.904-.904v-76.171c0-.553-.484-.973-1.031-.895-3.873.548-7.781 1.01-11.718 1.384-.466.044-.819.432-.819.9v82.47c0 3.746 3.037 6.784 6.784 6.784h77.307c.401 0 .742.251.862.634 3.185 10.134 12.638 17.297 23.585 17.297zm-307.152-69.926c-15.536 15.536-42.192 4.466-42.192-17.476 0-21.943 26.657-33.012 42.192-17.477 2.779 2.779 4.9 6.218 6.107 10.06.12.383.461.633.863.633h47.281c.498 0 .904-.406.904-.904v-40.028c0-.685.726-1.121 1.331-.798 3.831 2.048 7.737 4 11.714 5.851.326.152.523.46.523.82v41.842c0 3.746-3.037 6.784-6.784 6.784h-54.97c-.401 0-.742.25-.863.633-1.207 3.843-3.327 7.281-6.106 10.06z" fill-rule="evenodd"/></svg>