<svg id="Layer_1" viewBox="0 0 512 512" xmlns="http://www.w3.org/2000/svg" data-name="Layer 1"><path d="m365.634 356.067h13.954v13.954h-13.954zm6.963 89.57c-6.627 0-12-5.373-12-12v-8.409h-6.641v8.409c0 6.627-5.373 12-12 12s-12-5.373-12-12v-8.409h-7.53c-6.627 0-12-5.373-12-12v-7.529h-8.38c-6.627 0-12-5.373-12-12s5.373-12 12-12h8.38v-6.641h-8.38c-6.627 0-12-5.373-12-12s5.373-12 12-12h8.38v-6.669h-8.38c-6.627 0-12-5.373-12-12s5.373-12 12-12h8.38v-7.53c0-6.627 5.373-12 12-12h7.53v-8.38c0-6.627 5.373-12 12-12s12 5.373 12 12v8.38h6.641v-8.38c0-6.627 5.373-12 12-12s12 5.373 12 12v8.38h6.669v-8.38c0-6.627 5.373-12 12-12s12 5.373 12 12v8.38h7.53c6.627 0 12 5.373 12 12v7.53h8.38c6.627 0 12 5.373 12 12s-5.373 12-12 12h-8.38v6.669h8.38c6.627 0 12 5.373 12 12s-5.373 12-12 12h-8.38v6.641h8.38c6.627 0 12 5.373 12 12s-5.373 12-12 12h-8.38v7.529c0 6.627-5.373 12-12 12h-7.53v8.409c0 6.627-5.373 12-12 12s-12-5.373-12-12v-8.409h-6.669v8.409c0 6.627-5.373 12-12 12zm-18.963-51.616h37.954c6.627 0 12-5.373 12-12v-37.954c0-6.627-5.373-12-12-12h-37.954c-6.627 0-12 5.373-12 12v37.954c0 6.627 5.373 12 12 12zm142.301-76.376c-2.289-6.22-9.186-9.407-15.405-7.119-6.22 2.288-9.407 9.185-7.119 15.405 4.363 11.86 6.575 24.351 6.575 37.127 0 43.436-25.69 81.39-63.82 98.202.021-4.167-2.123-8.229-5.99-10.463-5.739-3.315-13.079-1.35-16.394 4.389l-11.281 19.53c-3.315 5.739-1.35 13.078 4.389 16.393l19.529 11.281c1.891 1.092 3.955 1.611 5.991 1.611 4.146 0 8.179-2.151 10.402-6 2.478-4.29 2.004-9.473-.79-13.202 19.42-7.901 36.864-20.424 50.652-36.615 20.191-23.712 31.311-53.944 31.311-85.126 0-15.612-2.708-30.891-8.051-45.413zm-141.579 151.245c-51.64-8.845-89.12-53.354-89.12-105.832 0-3.81.221-7.59.613-11.341 1.822 1.045 3.891 1.602 5.992 1.602 2.036 0 4.101-.519 5.991-1.611 5.739-3.315 7.704-10.654 4.389-16.393l-11.281-19.53c-3.314-5.739-10.654-7.704-16.394-4.389l-19.53 11.281c-5.739 3.315-7.704 10.654-4.389 16.393 2.48 4.294 7.213 6.473 11.844 5.911-.819 5.958-1.236 11.991-1.236 18.076 0 31.182 11.12 61.414 31.312 85.126 19.957 23.437 47.571 39.191 77.756 44.362.686.117 1.367.174 2.04.174 5.738 0 10.812-4.13 11.813-9.976 1.119-6.532-3.27-12.735-9.802-13.854zm-82.705-189.901c-4.241 5.093-3.551 12.659 1.542 16.9 2.243 1.868 4.965 2.779 7.673 2.779 3.439 0 6.854-1.471 9.228-4.321 20.471-24.581 50.542-38.679 82.503-38.679 23.01 0 45.05 7.313 63.24 20.587-3.612 2.069-6.05 5.952-6.05 10.412 0 6.627 5.373 12 12 12h22.562c6.627 0 12-5.373 12-12v-22.562c0-6.627-5.373-12-12-12-4.951 0-9.2 3-11.033 7.28-22.87-17.835-51.136-27.717-80.719-27.717-39.108 0-75.901 17.248-100.946 47.32zm29.995-54.198-57.372-48.761-77.966 93.549 47.275 40.156c2.635-3.093 5.807-5.746 9.429-7.839l19.53-11.281c.796-.46 1.613-.879 2.439-1.275-.701-9.366 2.203-18.475 8.228-25.71 13.58-16.307 30.088-29.414 48.437-38.839zm-84.382 135.313c-2.912-2.552-5.431-5.588-7.417-9.027-3.064-5.305-4.689-11.168-4.827-17.126l-102.907-87.411-94.099 112.967v3.891c0 31.624 25.728 57.352 57.352 57.352h162.99c-7.282-18.215-11.12-37.789-11.12-57.692 0-.984.009-1.969.028-2.954zm-130.279-132.902-78.971 94.806v-256.629c0-31.639 25.728-57.38 57.352-57.38h298.047c31.624 0 57.352 25.74 57.352 57.38v149.998c-15.484-5.05-31.761-7.708-48.168-7.708-15.769 0-31.218 2.375-45.908 6.909l-70.832-60.201c-3.896-3.297-8.83-4.866-13.879-4.418-5.046.447-9.615 2.852-12.841 6.746l-81.122 97.336-34.265-29.105c-3.866-3.303-8.777-4.89-13.839-4.464-5.061.424-9.646 2.808-12.926 6.73zm3.853-103.603c0 25.606 20.82 46.439 46.411 46.439s46.439-20.833 46.439-46.439-20.833-46.411-46.439-46.411-46.411 20.82-46.411 46.411zm46.411 22.439c12.373 0 22.439-10.066 22.439-22.439s-10.066-22.411-22.439-22.411-22.411 10.053-22.411 22.411 10.054 22.439 22.411 22.439z"/></svg>