<svg height="512" viewBox="0 0 32 32" width="512" xmlns="http://www.w3.org/2000/svg"><g id="_x31_5"><circle cx="7" cy="20" r="3"/><path d="m7.9902344 23h-.9902344-.9902344c-2.2109375 0-4.0097656 1.7939453-4.0097656 4v2c0 .5527344.4472656 1 1 1h8c.5527344 0 1-.4472656 1-1v-2c0-2.2060547-1.7988281-4-4.0097656-4z"/><path d="m5 9c.5527344 0 1-.4472656 1-1 0-.5517578.4482422-1 1-1s1 .4482422 1 1c0 .4316406-.2744141.8134766-.6826172.9492188-.7880859.2617187-1.3173828 1.0253906-1.3173828 1.9023437v1.1484375c0 .5527344.4472656 1 1 1s1-.4472656 1-1l-.0527344-1.1523438c1.2275391-.4091796 2.0527344-1.5537109 2.0527344-2.8476562 0-1.6542969-1.3457031-3-3-3s-3 1.3457031-3 3c0 .5527344.4472656 1 1 1z"/><path d="m7.0302734 14h-.0107421c-.5517578 0-.9941406.4472656-.9941406 1s.4521484 1 1.0048828 1c.5517578 0 1-.4472656 1-1s-.4482422-1-1.0000001-1z"/><path d="m24.5 18c.8856201 0 1.7298584.1792603 2.5.5014648v-15.5014648c0-.5523071-.4476929-1-1-1h-14c-.5523071 0-1 .4476929-1 1v20c0 .5522461.4476929 1 1 1h6.0253296c.256958-3.3505249 3.0594482-6 6.4746704-6zm-6.6464844 3.1464844c.1953125.1953125.1953125.5117188 0 .7070313-.0976562.0976562-.2255859.1464843-.3535156.1464843s-.2558594-.0488281-.3535156-.1464844l-1.6464844-1.6464843-1.6464844 1.6464844c-.0976562.0976562-.2255859.1464843-.3535156.1464843s-.2558594-.0488281-.3535156-.1464844c-.1953125-.1953125-.1953125-.5117188 0-.7070313l1.6464844-1.6464843-1.6464844-1.6464844c-.1953125-.1953125-.1953125-.5117188 0-.7070313s.5117188-.1953125.7070313 0l1.6464843 1.6464845 1.6464844-1.6464844c.1953125-.1953125.5117188-.1953125.7070313 0s.1953125.5117188 0 .7070313l-1.6464844 1.6464843zm-.3535156-8.1464844h-1.5v1.5c0 .2763672-.2236328.5-.5.5s-.5-.2236328-.5-.5v-1.5h-1.5c-.2763672 0-.5-.2236328-.5-.5s.2236328-.5.5-.5h1.5v-1.5c0-.2763672.2236328-.5.5-.5s.5.2236328.5.5v1.5h1.5c.2763672 0 .5.2236328.5.5s-.2236328.5-.5.5zm-4.5-5v-4h12v4zm7.5 4h4c.2763672 0 .5.2236328.5.5s-.2236328.5-.5.5h-4c-.2763672 0-.5-.2236328-.5-.5s.2236328-.5.5-.5z"/><path d="m28.5184326 24.5c0-.2776489.2246704-.5023193.5022583-.5023193h.9793091c-.2391357-2.6502076-2.3475952-4.758545-4.9976807-4.9976807v.979248c0 .2776489-.2246704.5023193-.5023193.5023193s-.5023193-.2246704-.5023193-.5023193v-.979248c-2.6500855.2391357-4.758545 2.3474731-4.9976807 4.9976807h.9793091c.2775879 0 .5022583.2246704.5022583.5023193s-.2246704.5022583-.5022583.5022583h-.9793091c.2391357 2.6500855 2.3475952 4.758606 4.9976807 4.9977417v-.9793091c0-.2776489.2246704-.5023193.5023193-.5023193s.5023193.2246704.5023193.5023193v.9793091c2.6500855-.2391357 4.758545-2.3476562 4.9976807-4.9977417h-.9793091c-.2775879 0-.5022583-.2246094-.5022583-.5022583zm-1.6540527-1.6540527-2.0092163 2.0091553c-.0941773.0941772-.2217407.1471557-.3551636.1471557h-2.0092163c-.2776489 0-.5023193-.2246094-.5023193-.5022583s.2246704-.5023193.5023193-.5023193h1.8012085l1.8620605-1.8620605c.196228-.196228.5140991-.196228.7103271 0 .1961671.1962279.1961671.514099.0000001.7103271z"/></g></svg>