<svg id="Layer_1" enable-background="new 0 0 512 512" viewBox="0 0 512 512" xmlns="http://www.w3.org/2000/svg"><path clip-rule="evenodd" d="m433.83 218.95c-4.58-21.59-13.02-41.96-25.09-60.52-3.51-5.4-3.12-12.37.98-17.33l23.8-28.87c.89-1.07.81-2.61-.17-3.59l-28.01-28.01c-.98-.98-2.52-1.05-3.59-.17l-28.87 23.8c-4.97 4.1-11.93 4.49-17.33.98-18.57-12.07-38.94-20.51-60.52-25.1-6.3-1.34-10.95-6.54-11.57-12.95l-3.57-37.22c-.14-1.38-1.28-2.42-2.66-2.42h-39.62c-1.38 0-2.52 1.04-2.66 2.42l-3.57 37.22c-.62 6.41-5.27 11.61-11.57 12.95-21.59 4.59-41.95 13.03-60.52 25.1-5.4 3.51-12.37 3.12-17.33-.98l-28.87-23.8c-1.07-.88-2.61-.81-3.59.17l-28.01 28.01c-.98.98-1.06 2.52-.17 3.59l23.8 28.87c4.1 4.97 4.49 11.93.98 17.33-12.07 18.57-20.52 38.93-25.1 60.52-1.34 6.3-6.54 10.95-12.95 11.56l-37.22 3.58c-1.38.13-2.42 1.27-2.42 2.66v39.61c0 1.39 1.04 2.53 2.42 2.66l37.22 3.58c6.41.62 11.61 5.27 12.95 11.56 4.58 21.6 13.02 41.96 25.09 60.52 3.51 5.4 3.12 12.36-.98 17.33l-23.8 28.87c-.89 1.07-.81 2.61.17 3.59l28.01 28.01c.98.98 2.52 1.06 3.59.17l28.87-23.8c2.7-2.23 6.01-3.37 9.33-3.37 2.76 0 5.54.79 8 2.39 18.57 12.07 38.94 20.51 60.52 25.09 6.3 1.34 10.95 6.54 11.57 12.95l3.57 37.22c.14 1.38 1.28 2.42 2.66 2.42h39.62c1.38 0 2.52-1.04 2.66-2.42l3.57-37.22c.62-6.41 5.27-11.61 11.57-12.95 21.59-4.58 41.96-13.02 60.52-25.09 5.4-3.51 12.36-3.12 17.33.98l28.87 23.8c1.07.89 2.61.81 3.59-.17l28.01-28.01c.98-.98 1.06-2.52.17-3.59l-23.8-28.87c-4.1-4.97-4.49-11.93-.98-17.33 12.07-18.58 20.51-38.94 25.09-60.53 1.34-6.3 6.54-10.95 12.95-11.56l37.22-3.58c1.38-.13 2.42-1.27 2.42-2.66v-39.61c0-1.38-1.04-2.53-2.42-2.66l-37.22-3.58c-6.41-.61-11.6-5.25-12.94-11.55zm-128.13 67.62 7.7-14.97c1.03-2 3.09-3.26 5.34-3.26h31.8c3.31 0 6 2.69 6 6 0 3.32-2.69 6-6 6h-28.14l-12.59 24.49c-1.11 2.15-3.41 3.43-5.81 3.24-2.42-.19-4.48-1.81-5.23-4.11l-12.42-37.96-13.72 18.39c-1.42 1.91-3.84 2.79-6.16 2.26s-4.1-2.38-4.54-4.72l-10.13-53.14-13.16 93.02c-.41 2.93-2.9 5.12-5.87 5.16-.02 0-.04 0-.07 0-2.93 0-5.44-2.12-5.92-5.02l-11.62-70.1-8.15 24.39c-.82 2.45-3.11 4.1-5.69 4.1h-37.04c-3.31 0-6-2.68-6-6s2.69-6 6-6h32.72l14.43-43.21c.87-2.62 3.41-4.31 6.16-4.08 2.75.22 5 2.28 5.45 5l9.19 55.4 12.75-90.16c.41-2.91 2.86-5.09 5.8-5.16 2.92-.11 5.48 1.99 6.03 4.87l14.35 75.28 12.48-16.73c1.34-1.8 3.57-2.69 5.78-2.33s4.04 1.92 4.73 4.05zm-48.29-166.81c75.43 0 136.8 61.37 136.8 136.8s-61.37 136.8-136.8 136.8-136.8-61.37-136.8-136.8 61.37-136.8 136.8-136.8z" fill-rule="evenodd"/></svg>